Coordinates
version=1
nRows=15
nColumns=46
inDegrees=yes

Units are S.I. units (second, meters, Newtons, ...)
Angles are in degrees.

endheader
time	pelvis_tilt	pelvis_list	pelvis_rotation	pelvis_tx	pelvis_ty	pelvis_tz	bb_angle	bb_tx	bb_ty	bb_tz	hip_flexion_r	hip_adduction_r	hip_rotation_r	knee_angle_r	knee_angle_r_beta	ankle_angle_r	subtalar_angle_r	mtp_angle_r	crank_angle_r	hip_flexion_l	hip_adduction_l	hip_rotation_l	knee_angle_l	knee_angle_l_beta	ankle_angle_l	subtalar_angle_l	mtp_angle_l	crank_angle_l	lumbar_extension	lumbar_bending	lumbar_rotation	arm_flex_r	arm_add_r	arm_rot_r	elbow_flex_r	pro_sup_r	wrist_flex_r	wrist_dev_r	arm_flex_l	arm_add_l	arm_rot_l	elbow_flex_l	pro_sup_l	wrist_flex_l	wrist_dev_l
      0.00500000	    -13.69352257	     -1.34045197	     -1.76648779	      0.05161954	      1.15590358	     -0.22980357	      0.00000000	      0.50000000	      0.00000000	      0.25000000	     74.71516427	     -0.86524896	      2.07817143	     75.54062587	      1.31843264	      4.00594336	     -9.49712807	      0.00000000	      0.00000000	     47.47195883	     -5.73756683	      2.06959100	     72.78770298	      1.27038507	     18.58059947	     -8.26756500	      0.00000000	      0.00000000	    -55.56033212	      0.88538059	      2.19058317	     89.75104260	     -6.50812126	     39.48193595	     36.49514200	     21.76763231	      0.00000000	      0.00000000	     89.77539209	     -4.68308071	     35.52069941	     33.10576055	     21.43076504	      0.00000000	      0.00000000
      0.01000000	    -13.84780705	     -1.27223078	     -1.77980957	      0.05171893	      1.15569613	     -0.23008978	      0.00000000	      0.50000000	      0.00000000	      0.25000000	     74.88012149	     -0.90845990	      2.14216618	     75.53736635	      1.31837575	      4.00745903	     -9.47878248	      0.00000000	      0.00000000	     47.61446741	     -5.63931405	      2.04478372	     72.77195733	      1.27011026	     18.54627405	     -8.38298676	      0.00000000	      0.00000000	    -55.41686311	      0.87296913	      2.06216129	     89.75183136	     -6.35324711	     39.16365513	     35.79969518	     24.94097813	      0.00000000	      0.00000000	     89.77412989	     -4.68199466	     35.04961006	     32.42290011	     24.48646238	      0.00000000	      0.00000000
      0.01500000	    -13.81700085	     -1.37416348	     -1.78712145	      0.05181841	      1.15582351	     -0.22986933	      0.00000000	      0.50000000	      0.00000000	      0.25000000	     74.82483597	     -0.84156044	      2.04040612	     75.53277730	      1.31829566	      3.98851874	     -9.52779358	      0.00000000	      0.00000000	     47.58297082	     -5.78243844	      2.07041209	     72.77438266	      1.27015259	     18.58294748	     -8.26720311	      0.00000000	      0.00000000	    -55.47203812	      0.92611198	      2.12244996	     89.75271821	     -6.40302846	     39.31351110	     35.73282043	     25.91504083	      0.00000000	      0.00000000	     89.77448068	     -4.86244718	     35.35863370	     32.40089105	     25.42996423	      0.00000000	      0.00000000
      0.02000000	    -13.46975647	     -1.32016178	     -1.76176209	      0.05158077	      1.15626505	     -0.22997624	      0.00000000	      0.50000000	      0.00000000	      0.25000000	     74.48250090	     -0.88926036	      2.07490910	     75.55877587	      1.31874942	      3.86203621	     -9.90398545	      0.00000000	      0.00000000	     47.19982635	     -5.66347375	      2.08529409	     72.72281803	      1.26925262	     18.40639318	     -8.58029948	      0.00000000	      0.00000000	    -55.84817640	      0.84297273	      2.16906369	     89.75267837	     -6.35747085	     37.87694525	     35.36894144	     28.57547613	      0.00000000	      0.00000000	     89.77206260	     -4.43399524	     33.69924413	     32.11905631	     27.93964662	      0.00000000	      0.00000000
      0.02500000	    -13.78637624	     -1.63755817	     -2.28293176	      0.05173075	      1.15456651	     -0.22857908	      0.00000000	      0.50000000	      0.00000000	      0.25000000	     74.93023254	     -0.11810766	      2.02382486	     75.71768953	      1.32152298	      4.01076610	     -9.72535280	      0.00000000	      0.00000000	     47.82818996	     -5.75687020	      2.60940020	     73.15596267	      1.27681242	     17.67916340	    -10.50490132	      0.00000000	      0.00000000	    -55.32119906	      0.63618770	      2.68347947	     89.75002666	     -6.81050203	     40.19339674	     35.37782863	     28.08442870	      0.00000000	      0.00000000	     89.77490082	     -4.85029904	     36.13230869	     31.66943521	     27.32924137	      0.00000000	      0.00000000
      0.03000000	    -14.00250929	     -1.84089073	     -2.47865989	      0.05167335	      1.15389430	     -0.22799731	      0.00000000	      0.50000000	      0.00000000	      0.25000000	     75.15892920	      0.25002776	      1.93465047	     75.67487560	      1.32077574	      3.87848310	     -9.92746649	      0.00000000	      0.00000000	     48.21490375	     -5.92803748	      2.94068705	     73.42084326	      1.28143545	     17.58283079	    -10.62308260	      0.00000000	      0.00000000	    -55.07876606	      0.60527099	      2.96585138	     89.74927748	     -6.73218827	     39.95734022	     35.18819202	     28.57111857	      0.00000000	      0.00000000	     89.77161206	     -4.83029643	     36.10878411	     31.52849450	     27.80959268	      0.00000000	      0.00000000
      0.03500000	    -13.75113296	     -1.31384311	     -1.69649969	      0.05152612	      1.15579179	     -0.23021607	      0.00000000	      0.50000000	      0.00000000	      0.25000000	     74.82331210	     -0.98923733	      2.05971770	     75.61983606	      1.31981512	      3.85822481	     -9.72047618	      0.00000000	      0.00000000	     47.54692447	     -5.56153591	      2.17088107	     72.75077658	      1.26974058	     18.28471245	     -8.67414708	      0.00000000	      0.00000000	    -55.44882390	      0.87277547	      2.21257332	     89.75359426	     -6.98034359	     39.88131226	     35.37025105	     28.49254592	      0.00000000	      0.00000000	     89.77919721	     -4.68237079	     36.21501934	     31.67323776	     27.72675238	      0.00000000	      0.00000000
      0.04000000	    -13.48526132	     -1.32950090	     -1.82010218	      0.05161656	      1.15638518	     -0.22999801	      0.00000000	      0.50000000	      0.00000000	      0.25000000	     74.49279119	     -0.84078986	      2.09186089	     75.56310246	      1.31882493	      3.96904185	     -9.69181472	      0.00000000	      0.00000000	     47.17709024	     -5.71299862	      2.04562299	     72.67720062	      1.26845644	     18.54265967	     -8.49641646	      0.00000000	      0.00000000	    -55.88986317	      0.77361857	      2.23863450	     89.74883262	     -6.89480300	     38.90011238	     35.91387323	     29.39022725	      0.00000000	      0.00000000	     89.77443398	     -4.77889678	     35.07522254	     32.31938112	     28.61966123	      0.00000000	      0.00000000
      0.04500000	    -13.70381472	     -1.34742900	     -1.78791254	      0.05157541	      1.15584588	     -0.23003919	      0.00000000	      0.50000000	      0.00000000	      0.25000000	     74.76730067	     -0.86487133	      2.08113553	     75.62981766	      1.31998933	      4.04951973	     -9.53896435	      0.00000000	      0.00000000	     47.48156355	     -5.70849971	      2.08781052	     72.77017289	      1.27007911	     18.49796260	     -8.37457218	      0.00000000	      0.00000000	    -55.53720405	      0.81620114	      2.22261490	     89.75205911	     -6.84678373	     39.45710310	     35.33717611	     29.31621837	      0.00000000	      0.00000000	     89.77678847	     -4.73362434	     35.61136260	     31.72373204	     28.49641035	      0.00000000	      0.00000000
      0.05000000	    -13.69475485	     -1.37096761	     -1.76759718	      0.05156776	      1.15585197	     -0.23006185	      0.00000000	      0.50000000	      0.00000000	      0.25000000	     74.75513698	     -0.87301966	      2.05823261	     75.63853726	      1.32014152	      4.03203218	     -9.63218718	      0.00000000	      0.00000000	     47.47739890	     -5.71614337	      2.10939829	     72.76472426	      1.26998402	     18.49040728	     -8.37832236	      0.00000000	      0.00000000	    -55.55813133	      0.85306466	      2.24278724	     89.75329048	     -7.00852307	     39.94507586	     35.65599891	     28.65648766	      0.00000000	      0.00000000	     89.77794017	     -4.94131059	     36.40289600	     32.04030982	     27.71388317	      0.00000000	      0.00000000
      0.05500000	    -13.73063799	     -1.35188007	     -1.80238805	      0.05159323	      1.15582404	     -0.23002571	      0.00000000	      0.50000000	      0.00000000	      0.25000000	     74.79395508	     -0.84413506	      2.09389486	     75.63808473	      1.32013362	      4.09913120	     -9.52081594	      0.00000000	      0.00000000	     47.50023893	     -5.72028967	      2.07953526	     72.74746017	      1.26968270	     18.47771051	     -8.40425899	      0.00000000	      0.00000000	    -55.53717818	      0.81563639	      2.24727399	     89.75151701	     -6.86351414	     39.43060555	     35.51214738	     28.78215679	      0.00000000	      0.00000000	     89.77611343	     -4.77308265	     35.68032706	     31.96908310	     27.75651709	      0.00000000	      0.00000000
      0.06000000	    -13.71005234	     -1.36577015	     -1.75538907	      0.05154924	      1.15585024	     -0.23011173	      0.00000000	      0.50000000	      0.00000000	      0.25000000	     74.78245279	     -0.89661242	      2.04627680	     75.65455667	      1.32042111	      4.06430764	     -9.57640119	      0.00000000	      0.00000000	     47.49740461	     -5.69556226	      2.13131597	     72.75646759	      1.26983991	     18.50761046	     -8.31519040	      0.00000000	      0.00000000	    -55.56681466	      0.82895402	      2.21466319	     89.75107836	     -6.65829462	     38.58447610	     34.92205778	     30.74191895	      0.00000000	      0.00000000	     89.77435779	     -4.40394024	     34.22154178	     31.45468802	     29.67280947	      0.00000000	      0.00000000
      0.06500000	    -13.72049890	     -1.37118732	     -1.77812897	      0.05152889	      1.15582070	     -0.23001074	      0.00000000	      0.50000000	      0.00000000	      0.25000000	     74.79870533	     -0.85467573	      2.07624199	     75.68420432	      1.32093856	      4.31530133	     -9.18690673	      0.00000000	      0.00000000	     47.50954870	     -5.72379793	      2.12198367	     72.75275143	      1.26977505	     18.44746567	     -8.35666374	      0.00000000	      0.00000000	    -55.54718741	      0.81030934	      2.23830743	     89.75106094	     -6.78146915	     38.89409845	     34.93586388	     31.31842320	      0.00000000	      0.00000000	     89.77624641	     -4.52398965	     34.63723588	     31.36396649	     30.20893543	      0.00000000	      0.00000000
      0.07000000	    -13.74328324	     -1.36201282	     -1.77530355	      0.05152084	      1.15575350	     -0.22999946	      0.00000000	      0.50000000	      0.00000000	      0.25000000	     74.88931360	     -0.86256306	      2.05127087	     75.75345600	      1.32214723	      6.67141056	     -6.71261060	      0.00000000	      0.00000000	     47.53255435	     -5.70939944	      2.12779824	     72.74473518	      1.26963514	     18.41344363	     -8.40257653	      0.00000000	      0.00000000	    -55.53251342	      0.80950061	      2.23938469	     89.75156049	     -6.97769405	     39.36252738	     35.14960406	     31.29317426	      0.00000000	      0.00000000	     89.77675302	     -4.74866155	     35.38904817	     31.53901468	     30.20074752	      0.00000000	      0.00000000
      0.07500000	    -13.74129580	     -1.36984875	     -1.83413210	      0.05146228	      1.15583102	     -0.22994097	      0.00000000	      0.50000000	      0.00000000	      0.25000000	     74.89643501	     -0.79593645	      2.02379609	     75.50845647	      1.31787118	      5.94919979	     -6.46832054	      0.00000000	      0.00000000	     47.51815454	     -5.76869088	      2.08049762	     72.72380874	      1.26926991	     18.39139548	     -8.36323478	      0.00000000	      0.00000000	    -55.55921013	      0.79494510	      2.31272056	     89.75281617	     -7.24090460	     40.12829584	     35.78781757	     29.45558539	      0.00000000	      0.00000000	     89.77939178	     -5.15622988	     36.94316041	     32.18856911	     28.31982148	      0.00000000	      0.00000000
